0
SECTION
2
HEADER
9
$ACADVER
1
AC1015
9
$INSUNITS
70
2
9
$MEASUREMENT
70
0
9
$HANDLING
70
1
9
$HANDSEED
5
FFFF
9
$TILEMODE
70
1
9
$LWDISPLAY
70
1
9
$EXTMIN
10
-3.52
20
-3.52
30
0
9
$EXTMAX
10
54.5
20
26
30
0
9
$LIMMIN
10
0
20
0
9
$LIMMAX
10
54.5
20
26
9
$LUNITS
70
4
9
$LUPREC
70
4
9
$AUNITS
70
0
9
$AUPREC
70
0
9
$LTSCALE
40
1
9
$PSLTSCALE
70
1
9
$FILLMODE
70
1
9
$MIRRTEXT
70
1
9
$ATTMODE
70
1
9
$PDMODE
70
0
9
$PDSIZE
40
0
9
$CLAYER
8
0
9
$TEXTSTYLE
7
Standard
9
$DIMSTYLE
2
Standard
9
$DIMASO
70
1
9
$DIMASSOC
280
2
0
ENDSEC
0
SECTION
2
TABLES
0
TABLE
2
VPORT
70
1
0
VPORT
2
*ACTIVE
70
0
10
0
20
0
11
1
21
1
12
0
22
0
13
0
23
0
14
0.5
24
0.5
15
0.5
25
0.5
16
0
26
0
36
1
17
0
27
0
37
0
40
50
41
1.4
42
50
43
0
44
0
50
0
51
0
71
0
72
100
73
1
74
3
75
0
76
0
77
0
78
0
0
ENDTAB
0
TABLE
2
LTYPE
70
10
0
LTYPE
2
ByBlock
70
0
3
ByBlock
72
65
73
0
40
0
0
LTYPE
2
ByLayer
70
0
3
ByLayer
72
65
73
0
40
0
0
LTYPE
2
CONTINUOUS
70
0
3
CONTINUOUS
72
65
73
0
40
0
0
LTYPE
2
DASHED
70
0
3
DASHED
72
65
73
2
40
0.75
49
0.5
49
-0.25
0
LTYPE
2
HIDDEN
70
0
3
HIDDEN
72
65
73
2
40
0.4
49
0.25
49
-0.15
0
LTYPE
2
CENTER
70
0
3
CENTER
72
65
73
4
40
1.5499999999999998
49
1
49
-0.2
49
0.15
49
-0.2
0
LTYPE
2
PHANTOM
70
0
3
PHANTOM
72
65
73
6
40
2.0999999999999996
49
1.2
49
-0.2
49
0.15
49
-0.2
49
0.15
49
-0.2
0
LTYPE
2
DOT
70
0
3
DOT
72
65
73
2
40
0.19999999999999998
49
0.02
49
-0.18
0
LTYPE
2
DIVIDE
70
0
3
DIVIDE
72
65
73
6
40
1.56
49
0.8
49
-0.2
49
0.08
49
-0.2
49
0.08
49
-0.2
0
LTYPE
2
BORDER
70
0
3
BORDER
72
65
73
4
40
1.1500000000000001
49
0.6
49
-0.2
49
0.15
49
-0.2
0
ENDTAB
0
TABLE
2
LAYER
70
15
0
LAYER
2
A-WALL
70
0
62
2
6
CONTINUOUS
0
LAYER
2
A-DOOR
70
0
62
4
6
CONTINUOUS
0
LAYER
2
A-FLOR-FIXT
70
0
62
1
6
CONTINUOUS
0
LAYER
2
A-ANNO-DIMS
70
0
62
8
6
CONTINUOUS
0
LAYER
2
A-ANNO-TEXT
70
0
62
7
6
CONTINUOUS
0
LAYER
2
A-ANNO-PATT
70
0
62
8
6
CONTINUOUS
0
LAYER
2
A-ANNO-CNTR
70
0
62
1
6
CENTER
0
LAYER
2
A-ANNO-SCHD
70
0
62
7
6
CONTINUOUS
0
LAYER
2
A-ANNO-REFR
70
0
62
8
6
CONTINUOUS
0
LAYER
2
A-AREA-IDEN
70
0
62
3
6
CONTINUOUS
0
LAYER
2
S-GRID
70
0
62
8
6
CENTER
0
LAYER
2
DEFPOINTS
70
0
62
8
6
CONTINUOUS
0
LAYER
2
A-SECT
70
0
62
4
6
CONTINUOUS
0
LAYER
2
A-ANNO-SYMB
70
0
62
7
6
CONTINUOUS
0
LAYER
2
A-ANNO-NOTE
70
0
62
7
6
CONTINUOUS
0
ENDTAB
0
TABLE
2
STYLE
70
1
0
STYLE
2
Standard
70
0
40
0
41
1
50
0
71
0
42
0.2
3
txt
4

0
ENDTAB
0
TABLE
2
VIEW
70
0
0
ENDTAB
0
TABLE
2
UCS
70
0
0
ENDTAB
0
TABLE
2
APPID
70
1
0
APPID
2
ACAD
70
0
0
ENDTAB
0
TABLE
2
DIMSTYLE
70
1
0
DIMSTYLE
2
Standard
70
0
3

4

5

6

7

40
1
41
0.18
42
0.0625
43
0.38
44
0.18
140
0.18
141
0.09
147
0.09
271
4
272
4
273
2
274
3
275
0
276
0
277
2
278
46
279
1
280
0
281
0
282
0
283
1
284
0
285
0
286
0
288
0
289
3
0
ENDTAB
0
TABLE
2
BLOCK_RECORD
70
2
0
BLOCK_RECORD
2
*MODEL_SPACE
0
BLOCK_RECORD
2
*PAPER_SPACE
0
ENDTAB
0
ENDSEC
0
SECTION
2
BLOCKS
0
BLOCK
8
0
2
*MODEL_SPACE
70
0
10
0
20
0
30
0
0
ENDBLK
0
BLOCK
8
0
2
*PAPER_SPACE
70
0
10
0
20
0
30
0
0
ENDBLK
0
ENDSEC
0
SECTION
2
ENTITIES
0
LINE
8
A-WALL
10
0.25
20
23.75
30
0
11
0.25
21
0.25
31
0
0
LINE
8
A-WALL
10
-0.25
20
24
30
0
11
-0.25
21
0
31
0
0
LINE
8
A-WALL
10
0.25
20
24
30
0
11
-0.25
21
24
31
0
0
LINE
8
A-WALL
10
0.25
20
0
30
0
11
-0.25
21
0
31
0
0
LINE
8
A-DOOR
10
11.1
20
0
30
0
11
11.1
21
3
31
0
0
ARC
8
A-DOOR
10
11.1
20
0
30
0
40
3
50
0
51
90
0
LINE
8
A-WALL
10
0
20
0.25
30
0
11
11.1
21
0.25
31
0
0
LINE
8
A-WALL
10
0
20
-0.25
30
0
11
11.1
21
-0.25
31
0
0
LINE
8
A-WALL
10
11.1
20
0.25
30
0
11
11.1
21
-0.25
31
0
0
LINE
8
A-WALL
10
14.1
20
0.25
30
0
11
14.1
21
-0.25
31
0
0
LINE
8
A-WALL
10
14.1
20
0.25
30
0
11
36
21
0.25
31
0
0
LINE
8
A-WALL
10
14.1
20
-0.25
30
0
11
36
21
-0.25
31
0
0
LINE
8
A-WALL
10
0
20
0.25
30
0
11
0
21
-0.25
31
0
0
LINE
8
A-WALL
10
36
20
0.25
30
0
11
36
21
-0.25
31
0
0
LINE
8
A-DOOR
10
14
20
4.75
30
0
11
16.5
21
4.75
31
0
0
ARC
8
A-DOOR
10
14
20
4.75
30
0
40
2.5
50
0
51
90
0
LINE
8
A-WALL
10
13.75
20
0
30
0
11
13.75
21
4.75
31
0
0
LINE
8
A-WALL
10
14.25
20
0
30
0
11
14.25
21
4.75
31
0
0
LINE
8
A-WALL
10
13.75
20
4.75
30
0
11
14.25
21
4.75
31
0
0
LINE
8
A-WALL
10
13.75
20
7.25
30
0
11
14.25
21
7.25
31
0
0
LINE
8
A-WALL
10
13.75
20
7.25
30
0
11
13.75
21
24
31
0
0
LINE
8
A-WALL
10
14.25
20
7.25
30
0
11
14.25
21
24
31
0
0
LINE
8
A-WALL
10
13.75
20
0
30
0
11
14.25
21
0
31
0
0
LINE
8
A-WALL
10
13.75
20
24
30
0
11
14.25
21
24
31
0
0
LINE
8
A-DOOR
10
5.75
20
10
30
0
11
5.75
21
12.5
31
0
0
ARC
8
A-DOOR
10
5.75
20
10
30
0
40
2.5
50
0
51
90
0
LINE
8
A-WALL
10
0
20
10.25
30
0
11
5.75
21
10.25
31
0
0
LINE
8
A-WALL
10
0
20
9.75
30
0
11
5.75
21
9.75
31
0
0
LINE
8
A-WALL
10
5.75
20
10.25
30
0
11
5.75
21
9.75
31
0
0
LINE
8
A-WALL
10
8.25
20
10.25
30
0
11
8.25
21
9.75
31
0
0
LINE
8
A-WALL
10
8.25
20
10.25
30
0
11
14
21
10.25
31
0
0
LINE
8
A-WALL
10
8.25
20
9.75
30
0
11
14
21
9.75
31
0
0
LINE
8
A-WALL
10
0
20
10.25
30
0
11
0
21
9.75
31
0
0
LINE
8
A-WALL
10
14
20
10.25
30
0
11
14
21
9.75
31
0
0
LINE
8
A-DOOR
10
30.3
20
24.33
30
0
11
27.3
21
24.33
31
0
0
LINE
8
A-DOOR
10
30.3
20
24
30
0
11
27.3
21
24
31
0
0
LINE
8
A-DOOR
10
30.3
20
23.67
30
0
11
27.3
21
23.67
31
0
0
LINE
8
A-DOOR
10
30.3
20
24.33
30
0
11
30.3
21
23.67
31
0
0
LINE
8
A-DOOR
10
27.3
20
24.33
30
0
11
27.3
21
23.67
31
0
0
LINE
8
A-WALL
10
36
20
23.75
30
0
11
30.3
21
23.75
31
0
0
LINE
8
A-WALL
10
36
20
24.25
30
0
11
30.3
21
24.25
31
0
0
LINE
8
A-WALL
10
30.3
20
23.75
30
0
11
30.3
21
24.25
31
0
0
LINE
8
A-WALL
10
27.3
20
23.75
30
0
11
27.3
21
24.25
31
0
0
LINE
8
A-WALL
10
27.3
20
23.75
30
0
11
0
21
23.75
31
0
0
LINE
8
A-WALL
10
27.3
20
24.25
30
0
11
0
21
24.25
31
0
0
LINE
8
A-WALL
10
36
20
23.75
30
0
11
36
21
24.25
31
0
0
LINE
8
A-WALL
10
0
20
23.75
30
0
11
0
21
24.25
31
0
0
LINE
8
A-DOOR
10
36.33
20
10
30
0
11
36.33
21
14
31
0
0
LINE
8
A-DOOR
10
36
20
10
30
0
11
36
21
14
31
0
0
LINE
8
A-DOOR
10
35.67
20
10
30
0
11
35.67
21
14
31
0
0
LINE
8
A-DOOR
10
36.33
20
10
30
0
11
35.67
21
10
31
0
0
LINE
8
A-DOOR
10
36.33
20
14
30
0
11
35.67
21
14
31
0
0
LINE
8
A-WALL
10
35.75
20
0
30
0
11
35.75
21
10
31
0
0
LINE
8
A-WALL
10
36.25
20
0
30
0
11
36.25
21
10
31
0
0
LINE
8
A-WALL
10
35.75
20
10
30
0
11
36.25
21
10
31
0
0
LINE
8
A-WALL
10
35.75
20
14
30
0
11
36.25
21
14
31
0
0
LINE
8
A-WALL
10
35.75
20
14
30
0
11
35.75
21
24
31
0
0
LINE
8
A-WALL
10
36.25
20
14
30
0
11
36.25
21
24
31
0
0
LINE
8
A-WALL
10
35.75
20
0
30
0
11
36.25
21
0
31
0
0
LINE
8
A-WALL
10
35.75
20
24
30
0
11
36.25
21
24
31
0
0
HATCH
8
A-ANNO-PATT
10
0
20
0
30
0
210
0
220
0
230
1
2
ANSI31
70
0
71
0
91
1
92
2
72
0
73
1
93
4
10
0.5
20
10.5
10
13.5
20
10.5
10
13.5
20
23.5
10
0.5
20
23.5
97
0
75
0
76
1
52
0
41
1
77
0
78
1
53
45
43
0
44
0
45
-0.3536
46
0.3536
79
0
98
0
0
HATCH
8
A-ANNO-PATT
10
0
20
0
30
0
210
0
220
0
230
1
2
ANSI31
70
0
71
0
91
1
92
2
72
0
73
1
93
4
10
14.5
20
0.5
10
35.5
20
0.5
10
35.5
20
23.5
10
14.5
20
23.5
97
0
75
0
76
1
52
0
41
1
77
0
78
1
53
45
43
0
44
0
45
-0.3536
46
0.3536
79
0
98
0
0
HATCH
8
A-ANNO-PATT
10
0
20
0
30
0
210
0
220
0
230
1
2
NET
70
0
71
0
91
1
92
2
72
0
73
1
93
4
10
0.5
20
0.5
10
13.5
20
0.5
10
13.5
20
9.5
10
0.5
20
9.5
97
0
75
0
76
1
52
0
41
1
77
0
78
2
53
0
43
0
44
0
45
0
46
0.6
79
0
53
90
43
0
44
0
45
-0.6
46
0
79
0
98
0
0
TEXT
8
A-ANNO-TEXT
10
4.5
20
16
30
0
40
1.4
1
KITCHEN
0
TEXT
8
A-ANNO-TEXT
10
22
20
12
30
0
40
1.4
1
BEDROOM
0
TEXT
8
A-ANNO-TEXT
10
4.5
20
4.5
30
0
40
1.4
1
LIVING
0
DIMENSION
8
A-ANNO-DIMS
2
*D0
10
0
20
-2.5
30
0
11
18
21
-2.5
31
0
12
0
22
0
32
0
70
1
1
36'-0"
13
0
23
0
33
0
14
36
24
0
34
0
0
DIMENSION
8
A-ANNO-DIMS
2
*D0
10
2.5
20
0
30
0
11
2.5
21
12
31
0
12
0
22
0
32
0
70
1
1
24'-0"
13
0
23
0
33
0
14
0
24
24
34
0
0
DIMENSION
8
A-ANNO-DIMS
2
*D0
10
0
20
26
30
0
11
7
21
26
31
0
12
0
22
0
32
0
70
1
1
14'-0"
13
0
23
24
33
0
14
14
24
24
34
0
0
DIMENSION
8
A-ANNO-DIMS
2
*D0
10
14
20
2
30
0
11
25
21
2
31
0
12
0
22
0
32
0
70
1
1
22'-0"
13
14
23
0
33
0
14
36
24
0
34
0
0
LINE
8
A-ANNO-CNTR
6
CENTER
10
18
20
-1
30
0
11
18
21
25
31
0
0
LWPOLYLINE
8
A-AREA-IDEN
90
5
70
1
10
14.25
20
0.25
10
35.75
20
0.25
10
35.75
20
23.75
10
14.25
20
23.75
10
14.25
20
10
0
TEXT
8
A-AREA-IDEN
10
23.1663
20
9.9
30
0
40
1
1
505 SF
0
LWPOLYLINE
8
A-AREA-IDEN
90
4
70
1
10
0.25
20
23.75
10
0.25
20
10.25
10
13.75
20
10.25
10
13.75
20
23.75
0
TEXT
8
A-AREA-IDEN
10
5.1663
20
14.9
30
0
40
1
1
182 SF
0
LWPOLYLINE
8
A-AREA-IDEN
90
4
70
1
10
0.25
20
9.75
10
0.25
20
0.25
10
13.75
20
0.25
10
13.75
20
9.75
0
TEXT
8
A-AREA-IDEN
10
5.1663
20
2.9
30
0
40
1
1
128 SF
0
LINE
8
S-GRID
6
CENTER
10
0
20
0
30
0
11
0
21
24
31
0
0
CIRCLE
8
S-GRID
10
0
20
-2.42
30
0
40
1.1
0
TEXT
8
S-GRID
10
-0.385
20
-2.805
30
0
40
0.99
1
A
0
LINE
8
S-GRID
6
CENTER
10
12
20
0
30
0
11
12
21
24
31
0
0
CIRCLE
8
S-GRID
10
12
20
-2.42
30
0
40
1.1
0
TEXT
8
S-GRID
10
11.615
20
-2.805
30
0
40
0.99
1
B
0
LINE
8
S-GRID
6
CENTER
10
24
20
0
30
0
11
24
21
24
31
0
0
CIRCLE
8
S-GRID
10
24
20
-2.42
30
0
40
1.1
0
TEXT
8
S-GRID
10
23.615
20
-2.805
30
0
40
0.99
1
C
0
LINE
8
S-GRID
6
CENTER
10
36
20
0
30
0
11
36
21
24
31
0
0
CIRCLE
8
S-GRID
10
36
20
-2.42
30
0
40
1.1
0
TEXT
8
S-GRID
10
35.615
20
-2.805
30
0
40
0.99
1
D
0
LINE
8
S-GRID
6
CENTER
10
0
20
0
30
0
11
36
21
0
31
0
0
CIRCLE
8
S-GRID
10
-2.42
20
0
30
0
40
1.1
0
TEXT
8
S-GRID
10
-2.728
20
-0.385
30
0
40
0.935
1
1
0
LINE
8
S-GRID
6
CENTER
10
0
20
12
30
0
11
36
21
12
31
0
0
CIRCLE
8
S-GRID
10
-2.42
20
12
30
0
40
1.1
0
TEXT
8
S-GRID
10
-2.728
20
11.615
30
0
40
0.935
1
2
0
LINE
8
S-GRID
6
CENTER
10
0
20
24
30
0
11
36
21
24
31
0
0
CIRCLE
8
S-GRID
10
-2.42
20
24
30
0
40
1.1
0
TEXT
8
S-GRID
10
-2.728
20
23.615
30
0
40
0.935
1
3
0
LWPOLYLINE
8
A-FLOR-FIXT
90
4
70
1
10
1.25
20
21
10
3.75
20
21
10
3.75
20
23
10
1.25
20
23
0
CIRCLE
8
A-FLOR-FIXT
10
1.9
20
22.42
30
0
40
0.3
0
CIRCLE
8
A-FLOR-FIXT
10
3.1
20
22.42
30
0
40
0.3
0
CIRCLE
8
A-FLOR-FIXT
10
1.9
20
21.58
30
0
40
0.3
0
CIRCLE
8
A-FLOR-FIXT
10
3.1
20
21.58
30
0
40
0.3
0
LWPOLYLINE
8
A-FLOR-FIXT
90
4
70
1
10
6.75
20
20.5
10
6.75
20
23.5
10
4.25
20
23.5
10
4.25
20
20.5
0
LINE
8
A-FLOR-FIXT
10
5.2
20
20.5
30
0
11
5.2
21
23.5
31
0
0
TEXT
8
A-ANNO-SCHD
10
38.12
20
19.638
30
0
40
0.13
1
DOOR SCHEDULE
0
LINE
8
A-ANNO-SCHD
10
38
20
19.4
30
0
11
51.7
21
19.4
31
0
0
LINE
8
A-ANNO-SCHD
10
38
20
18.55
30
0
11
51.7
21
18.55
31
0
0
LINE
8
A-ANNO-SCHD
10
38
20
17.7
30
0
11
51.7
21
17.7
31
0
0
LINE
8
A-ANNO-SCHD
10
38
20
16.85
30
0
11
51.7
21
16.85
31
0
0
LINE
8
A-ANNO-SCHD
10
38
20
16
30
0
11
51.7
21
16
31
0
0
LINE
8
A-ANNO-SCHD
10
38
20
16
30
0
11
38
21
19.4
31
0
0
LINE
8
A-ANNO-SCHD
10
41.2
20
16
30
0
11
41.2
21
19.4
31
0
0
LINE
8
A-ANNO-SCHD
10
44.7
20
16
30
0
11
44.7
21
19.4
31
0
0
LINE
8
A-ANNO-SCHD
10
47.5
20
16
30
0
11
47.5
21
19.4
31
0
0
LINE
8
A-ANNO-SCHD
10
51.7
20
16
30
0
11
51.7
21
19.4
31
0
0
TEXT
8
A-ANNO-SCHD
10
38.1
20
18.788
30
0
40
0.1
1
MARK
0
TEXT
8
A-ANNO-SCHD
10
41.3
20
18.788
30
0
40
0.1
1
WIDTH
0
TEXT
8
A-ANNO-SCHD
10
44.8
20
18.788
30
0
40
0.1
1
SWING
0
TEXT
8
A-ANNO-SCHD
10
47.6
20
18.788
30
0
40
0.1
1
WALL
0
TEXT
8
A-ANNO-SCHD
10
38.1
20
17.938
30
0
40
0.085
1
D01
0
TEXT
8
A-ANNO-SCHD
10
41.3
20
17.938
30
0
40
0.085
1
3'-0"
0
TEXT
8
A-ANNO-SCHD
10
44.8
20
17.938
30
0
40
0.085
1
L
0
TEXT
8
A-ANNO-SCHD
10
47.6
20
17.938
30
0
40
0.085
1
SOUTH
0
TEXT
8
A-ANNO-SCHD
10
38.1
20
17.088
30
0
40
0.085
1
D02
0
TEXT
8
A-ANNO-SCHD
10
41.3
20
17.088
30
0
40
0.085
1
2'-6"
0
TEXT
8
A-ANNO-SCHD
10
44.8
20
17.088
30
0
40
0.085
1
R
0
TEXT
8
A-ANNO-SCHD
10
47.6
20
17.088
30
0
40
0.085
1
INT-Y
0
TEXT
8
A-ANNO-SCHD
10
38.1
20
16.238
30
0
40
0.085
1
D03
0
TEXT
8
A-ANNO-SCHD
10
41.3
20
16.238
30
0
40
0.085
1
2'-6"
0
TEXT
8
A-ANNO-SCHD
10
44.8
20
16.238
30
0
40
0.085
1
L
0
TEXT
8
A-ANNO-SCHD
10
47.6
20
16.238
30
0
40
0.085
1
INT-X
0
TEXT
8
A-ANNO-SCHD
10
38.12
20
10.788
30
0
40
0.13
1
WINDOW SCHEDULE
0
LINE
8
A-ANNO-SCHD
10
38
20
10.55
30
0
11
51.7
21
10.55
31
0
0
LINE
8
A-ANNO-SCHD
10
38
20
9.7
30
0
11
51.7
21
9.7
31
0
0
LINE
8
A-ANNO-SCHD
10
38
20
8.85
30
0
11
51.7
21
8.85
31
0
0
LINE
8
A-ANNO-SCHD
10
38
20
8
30
0
11
51.7
21
8
31
0
0
LINE
8
A-ANNO-SCHD
10
38
20
8
30
0
11
38
21
10.55
31
0
0
LINE
8
A-ANNO-SCHD
10
41.2
20
8
30
0
11
41.2
21
10.55
31
0
0
LINE
8
A-ANNO-SCHD
10
44.7
20
8
30
0
11
44.7
21
10.55
31
0
0
LINE
8
A-ANNO-SCHD
10
47.5
20
8
30
0
11
47.5
21
10.55
31
0
0
LINE
8
A-ANNO-SCHD
10
51.7
20
8
30
0
11
51.7
21
10.55
31
0
0
TEXT
8
A-ANNO-SCHD
10
38.1
20
9.938
30
0
40
0.1
1
MARK
0
TEXT
8
A-ANNO-SCHD
10
41.3
20
9.938
30
0
40
0.1
1
WIDTH
0
TEXT
8
A-ANNO-SCHD
10
44.8
20
9.938
30
0
40
0.1
1
THK
0
TEXT
8
A-ANNO-SCHD
10
47.6
20
9.938
30
0
40
0.1
1
WALL
0
TEXT
8
A-ANNO-SCHD
10
38.1
20
9.088
30
0
40
0.085
1
W01
0
TEXT
8
A-ANNO-SCHD
10
41.3
20
9.088
30
0
40
0.085
1
3'-0"
0
TEXT
8
A-ANNO-SCHD
10
44.8
20
9.088
30
0
40
0.085
1
6"
0
TEXT
8
A-ANNO-SCHD
10
47.6
20
9.088
30
0
40
0.085
1
NORTH
0
TEXT
8
A-ANNO-SCHD
10
38.1
20
8.238
30
0
40
0.085
1
W02
0
TEXT
8
A-ANNO-SCHD
10
41.3
20
8.238
30
0
40
0.085
1
4'-0"
0
TEXT
8
A-ANNO-SCHD
10
44.8
20
8.238
30
0
40
0.085
1
6"
0
TEXT
8
A-ANNO-SCHD
10
47.6
20
8.238
30
0
40
0.085
1
EAST
0
TEXT
8
A-ANNO-SCHD
10
38.12
20
3.638
30
0
40
0.13
1
ROOM SCHEDULE
0
LINE
8
A-ANNO-SCHD
10
38
20
3.4
30
0
11
54.5
21
3.4
31
0
0
LINE
8
A-ANNO-SCHD
10
38
20
2.55
30
0
11
54.5
21
2.55
31
0
0
LINE
8
A-ANNO-SCHD
10
38
20
1.7
30
0
11
54.5
21
1.7
31
0
0
LINE
8
A-ANNO-SCHD
10
38
20
0.85
30
0
11
54.5
21
0.85
31
0
0
LINE
8
A-ANNO-SCHD
10
38
20
0
30
0
11
54.5
21
0
31
0
0
LINE
8
A-ANNO-SCHD
10
38
20
0
30
0
11
38
21
3.4
31
0
0
LINE
8
A-ANNO-SCHD
10
43
20
0
30
0
11
43
21
3.4
31
0
0
LINE
8
A-ANNO-SCHD
10
47
20
0
30
0
11
47
21
3.4
31
0
0
LINE
8
A-ANNO-SCHD
10
50.5
20
0
30
0
11
50.5
21
3.4
31
0
0
LINE
8
A-ANNO-SCHD
10
54.5
20
0
30
0
11
54.5
21
3.4
31
0
0
TEXT
8
A-ANNO-SCHD
10
38.1
20
2.788
30
0
40
0.1
1
ROOM
0
TEXT
8
A-ANNO-SCHD
10
43.1
20
2.788
30
0
40
0.1
1
AREA
0
TEXT
8
A-ANNO-SCHD
10
47.1
20
2.788
30
0
40
0.1
1
SF
0
TEXT
8
A-ANNO-SCHD
10
50.6
20
2.788
30
0
40
0.1
1
FINISH
0
TEXT
8
A-ANNO-SCHD
10
38.1
20
1.938
30
0
40
0.085
1
BEDROOM
0
TEXT
8
A-ANNO-SCHD
10
43.1
20
1.938
30
0
40
0.085
1
21'-6" x 23'-6"
0
TEXT
8
A-ANNO-SCHD
10
47.1
20
1.938
30
0
40
0.085
1
505.3 SF
0
TEXT
8
A-ANNO-SCHD
10
50.6
20
1.938
30
0
40
0.085
1
-
0
TEXT
8
A-ANNO-SCHD
10
38.1
20
1.088
30
0
40
0.085
1
KITCHEN
0
TEXT
8
A-ANNO-SCHD
10
43.1
20
1.088
30
0
40
0.085
1
13'-6" x 13'-6"
0
TEXT
8
A-ANNO-SCHD
10
47.1
20
1.088
30
0
40
0.085
1
182.3 SF
0
TEXT
8
A-ANNO-SCHD
10
50.6
20
1.088
30
0
40
0.085
1
-
0
TEXT
8
A-ANNO-SCHD
10
38.1
20
0.238
30
0
40
0.085
1
LIVING
0
TEXT
8
A-ANNO-SCHD
10
43.1
20
0.238
30
0
40
0.085
1
13'-6" x 9'-6"
0
TEXT
8
A-ANNO-SCHD
10
47.1
20
0.238
30
0
40
0.085
1
128.3 SF
0
TEXT
8
A-ANNO-SCHD
10
50.6
20
0.238
30
0
40
0.085
1
-
0
ENDSEC
0
SECTION
2
OBJECTS
0
DICTIONARY
5
C
3
ACAD_GROUP
350
D
3
ACAD_LAYOUT
350
1A
0
DICTIONARY
5
1A
3
Model
350
1B
0
LAYOUT
5
1B
100
AcDbPlotSettings
100
AcDbLayout
1
Model
70
1
71
1
10
0
20
0
11
36
21
24
12
0
22
0
14
0
24
0
15
36
25
24
146
0
13
0
23
0
16
1
26
0
36
0
17
0
27
1
37
0
76
0
0
ENDSEC
0
EOF